<svg width="597" height="312" viewBox="0 0 597 312" fill="none" xmlns="http://www.w3.org/2000/svg">
<path d="M181.648 201.248C180.624 201.248 179.728 200.907 178.96 200.224C178.192 199.456 177.808 198.517 177.808 197.408V105.12C177.808 104.011 178.192 103.115 178.96 102.432C179.728 101.664 180.624 101.28 181.648 101.28C182.757 101.28 183.653 101.664 184.336 102.432C185.104 103.115 185.488 104.011 185.488 105.12V194.336H238.096C239.291 194.336 240.229 194.677 240.912 195.36C241.595 195.957 241.936 196.768 241.936 197.792C241.936 198.816 241.595 199.669 240.912 200.352C240.229 200.949 239.291 201.248 238.096 201.248H181.648ZM293.861 202.528C287.034 202.528 280.592 201.205 274.533 198.56C268.56 195.829 263.269 192.117 258.661 187.424C254.053 182.645 250.426 177.184 247.781 171.04C245.136 164.811 243.813 158.197 243.813 151.2C243.813 144.288 245.093 137.76 247.653 131.616C250.213 125.387 253.754 119.925 258.277 115.232C262.885 110.453 268.218 106.741 274.277 104.096C280.336 101.365 286.864 100 293.861 100C299.749 100 305.338 100.939 310.629 102.816C315.92 104.693 320.869 107.552 325.477 111.392C326.245 111.989 326.629 112.843 326.629 113.952C326.629 114.976 326.288 115.915 325.605 116.768C324.922 117.536 323.984 117.92 322.789 117.92C322.448 117.92 322.106 117.877 321.765 117.792C321.424 117.621 321.082 117.451 320.741 117.28C320.4 117.024 320.016 116.725 319.589 116.384C316.176 113.312 312.293 111.093 307.941 109.728C303.589 108.363 298.896 107.68 293.861 107.68C288.144 107.68 282.725 108.875 277.605 111.264C272.485 113.568 267.962 116.768 264.037 120.864C260.112 124.875 257.04 129.483 254.821 134.688C252.602 139.893 251.493 145.397 251.493 151.2C251.493 157.173 252.602 162.805 254.821 168.096C257.04 173.387 260.069 178.037 263.909 182.048C267.834 186.059 272.357 189.216 277.477 191.52C282.597 193.739 288.058 194.848 293.861 194.848C298.896 194.848 303.589 194.08 307.941 192.544C312.378 191.008 316.517 188.661 320.357 185.504C321.04 184.907 321.85 184.693 322.789 184.864C323.728 185.035 324.538 185.461 325.221 186.144C325.904 186.827 326.245 187.723 326.245 188.832C326.245 189.344 326.202 189.813 326.117 190.24C326.032 190.667 325.776 191.093 325.349 191.52C321.168 195.701 316.304 198.603 310.757 200.224C305.296 201.76 299.664 202.528 293.861 202.528Z" fill="#98FF98"/>
<path d="M442.76 190.496C442.077 190.923 441.267 191.051 440.328 190.88C439.475 190.709 438.707 190.283 438.024 189.6C437.341 188.917 437 188.064 437 187.04C437 185.589 437.683 184.437 439.048 183.584L490.248 152.992V158.496L439.048 127.776C437.683 126.923 437 125.771 437 124.32C437 122.613 437.683 121.547 439.048 121.12C440.413 120.608 441.651 120.651 442.76 121.248L494.344 152.352C495.88 153.376 496.648 154.571 496.648 155.936C496.648 157.472 495.88 158.624 494.344 159.392L442.76 190.496Z" fill="#062A78"/>
<path d="M153.888 190.496L102.304 159.392C100.768 158.624 100 157.472 100 155.936C100 154.571 100.768 153.376 102.304 152.352L153.888 121.248C154.997 120.651 156.235 120.608 157.6 121.12C158.965 121.547 159.648 122.613 159.648 124.32C159.648 125.771 158.965 126.923 157.6 127.776L106.4 158.496V152.992L157.6 183.584C158.965 184.437 159.648 185.589 159.648 187.04C159.648 188.064 159.307 188.917 158.624 189.6C157.941 190.283 157.131 190.709 156.192 190.88C155.339 191.051 154.571 190.923 153.888 190.496Z" fill="#062A78"/>
<path d="M380.968 211.616C379.603 211.616 378.493 211.061 377.64 209.952C376.872 208.843 376.787 207.563 377.384 206.112L418.728 103.2C418.984 102.517 419.411 101.963 420.008 101.536C420.691 101.024 421.459 100.768 422.312 100.768C424.019 100.768 425.128 101.408 425.64 102.688C426.152 103.968 426.195 105.205 425.768 106.4L384.552 209.44C384.211 210.293 383.699 210.848 383.016 211.104C382.333 211.445 381.651 211.616 380.968 211.616Z" fill="#FF8F00"/>
<g filter="url(#filter0_f_101_101)">
<path d="M181.648 201.248C180.624 201.248 179.728 200.907 178.96 200.224C178.192 199.456 177.808 198.517 177.808 197.408V105.12C177.808 104.011 178.192 103.115 178.96 102.432C179.728 101.664 180.624 101.28 181.648 101.28C182.757 101.28 183.653 101.664 184.336 102.432C185.104 103.115 185.488 104.011 185.488 105.12V194.336H238.096C239.291 194.336 240.229 194.677 240.912 195.36C241.595 195.957 241.936 196.768 241.936 197.792C241.936 198.816 241.595 199.669 240.912 200.352C240.229 200.949 239.291 201.248 238.096 201.248H181.648ZM293.861 202.528C287.034 202.528 280.592 201.205 274.533 198.56C268.56 195.829 263.269 192.117 258.661 187.424C254.053 182.645 250.426 177.184 247.781 171.04C245.136 164.811 243.813 158.197 243.813 151.2C243.813 144.288 245.093 137.76 247.653 131.616C250.213 125.387 253.754 119.925 258.277 115.232C262.885 110.453 268.218 106.741 274.277 104.096C280.336 101.365 286.864 100 293.861 100C299.749 100 305.338 100.939 310.629 102.816C315.92 104.693 320.869 107.552 325.477 111.392C326.245 111.989 326.629 112.843 326.629 113.952C326.629 114.976 326.288 115.915 325.605 116.768C324.922 117.536 323.984 117.92 322.789 117.92C322.448 117.92 322.106 117.877 321.765 117.792C321.424 117.621 321.082 117.451 320.741 117.28C320.4 117.024 320.016 116.725 319.589 116.384C316.176 113.312 312.293 111.093 307.941 109.728C303.589 108.363 298.896 107.68 293.861 107.68C288.144 107.68 282.725 108.875 277.605 111.264C272.485 113.568 267.962 116.768 264.037 120.864C260.112 124.875 257.04 129.483 254.821 134.688C252.602 139.893 251.493 145.397 251.493 151.2C251.493 157.173 252.602 162.805 254.821 168.096C257.04 173.387 260.069 178.037 263.909 182.048C267.834 186.059 272.357 189.216 277.477 191.52C282.597 193.739 288.058 194.848 293.861 194.848C298.896 194.848 303.589 194.08 307.941 192.544C312.378 191.008 316.517 188.661 320.357 185.504C321.04 184.907 321.85 184.693 322.789 184.864C323.728 185.035 324.538 185.461 325.221 186.144C325.904 186.827 326.245 187.723 326.245 188.832C326.245 189.344 326.202 189.813 326.117 190.24C326.032 190.667 325.776 191.093 325.349 191.52C321.168 195.701 316.304 198.603 310.757 200.224C305.296 201.76 299.664 202.528 293.861 202.528Z" fill="#98FF98"/>
<path d="M442.76 190.496C442.077 190.923 441.267 191.051 440.328 190.88C439.475 190.709 438.707 190.283 438.024 189.6C437.341 188.917 437 188.064 437 187.04C437 185.589 437.683 184.437 439.048 183.584L490.248 152.992V158.496L439.048 127.776C437.683 126.923 437 125.771 437 124.32C437 122.613 437.683 121.547 439.048 121.12C440.413 120.608 441.651 120.651 442.76 121.248L494.344 152.352C495.88 153.376 496.648 154.571 496.648 155.936C496.648 157.472 495.88 158.624 494.344 159.392L442.76 190.496Z" fill="#062A78"/>
<path d="M153.888 190.496L102.304 159.392C100.768 158.624 100 157.472 100 155.936C100 154.571 100.768 153.376 102.304 152.352L153.888 121.248C154.997 120.651 156.235 120.608 157.6 121.12C158.965 121.547 159.648 122.613 159.648 124.32C159.648 125.771 158.965 126.923 157.6 127.776L106.4 158.496V152.992L157.6 183.584C158.965 184.437 159.648 185.589 159.648 187.04C159.648 188.064 159.307 188.917 158.624 189.6C157.941 190.283 157.131 190.709 156.192 190.88C155.339 191.051 154.571 190.923 153.888 190.496Z" fill="#062A78"/>
<path d="M380.968 211.616C379.603 211.616 378.493 211.061 377.64 209.952C376.872 208.843 376.787 207.563 377.384 206.112L418.728 103.2C418.984 102.517 419.411 101.963 420.008 101.536C420.691 101.024 421.459 100.768 422.312 100.768C424.019 100.768 425.128 101.408 425.64 102.688C426.152 103.968 426.195 105.205 425.768 106.4L384.552 209.44C384.211 210.293 383.699 210.848 383.016 211.104C382.333 211.445 381.651 211.616 380.968 211.616Z" fill="#FF8F00"/>
</g>
<defs>
<filter id="filter0_f_101_101" x="-4.992" y="-11.752" width="607" height="343" filterUnits="userSpaceOnUse" color-interpolation-filters="sRGB">
<feFlood flood-opacity="0" result="BackgroundImageFix"/>
<feBlend mode="normal" in="SourceGraphic" in2="BackgroundImageFix" result="shape"/>
<feGaussianBlur stdDeviation="50" result="effect1_foregroundBlur_101_101"/>
</filter>
</defs>
</svg>
